<svg width="801" height="42" viewBox="0 0 801 42" fill="none" xmlns="http://www.w3.org/2000/svg">
<circle cx="20" cy="21" r="20" fill="#00B307"/>
<path d="M26.6668 16.8335L17.5002 26.0002L13.3335 21.8335" stroke="white" stroke-width="2" stroke-linecap="round" stroke-linejoin="round"/>
<circle cx="273.333" cy="21" r="20" fill="#00B307"/>
<path d="M265.649 20.764C265.649 19.1493 265.92 17.8893 266.461 16.984C267.012 16.0693 267.954 15.612 269.289 15.612C270.624 15.612 271.562 16.0693 272.103 16.984C272.654 17.8893 272.929 19.1493 272.929 20.764C272.929 22.3973 272.654 23.676 272.103 24.6C271.562 25.5147 270.624 25.972 269.289 25.972C267.954 25.972 267.012 25.5147 266.461 24.6C265.92 23.676 265.649 22.3973 265.649 20.764ZM271.361 20.764C271.361 20.008 271.31 19.3687 271.207 18.846C271.114 18.3233 270.918 17.8987 270.619 17.572C270.32 17.236 269.877 17.068 269.289 17.068C268.701 17.068 268.258 17.236 267.959 17.572C267.66 17.8987 267.46 18.3233 267.357 18.846C267.264 19.3687 267.217 20.008 267.217 20.764C267.217 21.548 267.264 22.206 267.357 22.738C267.45 23.27 267.646 23.6993 267.945 24.026C268.253 24.3527 268.701 24.516 269.289 24.516C269.877 24.516 270.32 24.3527 270.619 24.026C270.927 23.6993 271.128 23.27 271.221 22.738C271.314 22.206 271.361 21.548 271.361 20.764ZM275.5 23.83C276.396 23.0553 277.1 22.4207 277.614 21.926C278.136 21.422 278.57 20.8993 278.916 20.358C279.261 19.8167 279.434 19.2753 279.434 18.734C279.434 18.174 279.298 17.7353 279.028 17.418C278.766 17.1007 278.351 16.942 277.782 16.942C277.231 16.942 276.802 17.1193 276.494 17.474C276.195 17.8193 276.036 18.286 276.018 18.874H274.478C274.506 17.81 274.823 16.998 275.43 16.438C276.046 15.8687 276.825 15.584 277.768 15.584C278.785 15.584 279.578 15.864 280.148 16.424C280.726 16.984 281.016 17.7307 281.016 18.664C281.016 19.336 280.843 19.9847 280.498 20.61C280.162 21.226 279.756 21.7813 279.28 22.276C278.813 22.7613 278.216 23.326 277.488 23.97L276.858 24.53H281.296V25.86H274.492V24.698L275.5 23.83Z" fill="white"/>
<circle cx="526.667" cy="21" r="20" fill="white" stroke="#00B307" stroke-linecap="round" stroke-linejoin="round" stroke-dasharray="6 4"/>
<path d="M519.017 20.834C519.017 19.2287 519.279 17.978 519.801 17.082C520.324 16.1767 521.239 15.724 522.545 15.724C523.843 15.724 524.753 16.1767 525.275 17.082C525.798 17.978 526.059 19.2287 526.059 20.834C526.059 22.4673 525.798 23.7367 525.275 24.642C524.753 25.5473 523.843 26 522.545 26C521.239 26 520.324 25.5473 519.801 24.642C519.279 23.7367 519.017 22.4673 519.017 20.834ZM524.799 20.834C524.799 20.022 524.743 19.336 524.631 18.776C524.529 18.2067 524.309 17.7493 523.973 17.404C523.647 17.0587 523.171 16.886 522.545 16.886C521.911 16.886 521.425 17.0587 521.089 17.404C520.763 17.7493 520.543 18.2067 520.431 18.776C520.329 19.336 520.277 20.022 520.277 20.834C520.277 21.674 520.329 22.3787 520.431 22.948C520.543 23.5173 520.763 23.9747 521.089 24.32C521.425 24.6653 521.911 24.838 522.545 24.838C523.171 24.838 523.647 24.6653 523.973 24.32C524.309 23.9747 524.529 23.5173 524.631 22.948C524.743 22.3787 524.799 21.674 524.799 20.834ZM527.78 18.426C527.846 17.5673 528.177 16.8953 528.774 16.41C529.372 15.9247 530.146 15.682 531.098 15.682C531.733 15.682 532.279 15.7987 532.736 16.032C533.203 16.256 533.553 16.564 533.786 16.956C534.029 17.348 534.15 17.7913 534.15 18.286C534.15 18.8647 533.982 19.364 533.646 19.784C533.32 20.204 532.89 20.4747 532.358 20.596V20.666C532.965 20.8153 533.446 21.1093 533.8 21.548C534.155 21.9867 534.332 22.5607 534.332 23.27C534.332 23.802 534.211 24.2827 533.968 24.712C533.726 25.132 533.362 25.4633 532.876 25.706C532.391 25.9487 531.808 26.07 531.126 26.07C530.137 26.07 529.325 25.8133 528.69 25.3C528.056 24.7773 527.701 24.04 527.626 23.088H528.858C528.924 23.648 529.152 24.1053 529.544 24.46C529.936 24.8147 530.459 24.992 531.112 24.992C531.766 24.992 532.26 24.824 532.596 24.488C532.942 24.1427 533.114 23.6993 533.114 23.158C533.114 22.458 532.881 21.954 532.414 21.646C531.948 21.338 531.243 21.184 530.3 21.184H529.978V20.12H530.314C531.173 20.1107 531.822 19.9707 532.26 19.7C532.699 19.42 532.918 18.9907 532.918 18.412C532.918 17.9173 532.755 17.5207 532.428 17.222C532.111 16.9233 531.654 16.774 531.056 16.774C530.478 16.774 530.011 16.9233 529.656 17.222C529.302 17.5207 529.092 17.922 529.026 18.426H527.78Z" fill="#00B307"/>
<circle cx="780" cy="21" r="20" fill="white" stroke="#00B307" stroke-linecap="round" stroke-linejoin="round" stroke-dasharray="6 4"/>
<path d="M772.07 20.834C772.07 19.2287 772.331 17.978 772.854 17.082C773.377 16.1767 774.291 15.724 775.598 15.724C776.895 15.724 777.805 16.1767 778.328 17.082C778.851 17.978 779.112 19.2287 779.112 20.834C779.112 22.4673 778.851 23.7367 778.328 24.642C777.805 25.5473 776.895 26 775.598 26C774.291 26 773.377 25.5473 772.854 24.642C772.331 23.7367 772.07 22.4673 772.07 20.834ZM777.852 20.834C777.852 20.022 777.796 19.336 777.684 18.776C777.581 18.2067 777.362 17.7493 777.026 17.404C776.699 17.0587 776.223 16.886 775.598 16.886C774.963 16.886 774.478 17.0587 774.142 17.404C773.815 17.7493 773.596 18.2067 773.484 18.776C773.381 19.336 773.33 20.022 773.33 20.834C773.33 21.674 773.381 22.3787 773.484 22.948C773.596 23.5173 773.815 23.9747 774.142 24.32C774.478 24.6653 774.963 24.838 775.598 24.838C776.223 24.838 776.699 24.6653 777.026 24.32C777.362 23.9747 777.581 23.5173 777.684 22.948C777.796 22.3787 777.852 21.674 777.852 20.834ZM780.553 23.746V22.78L785.467 15.976H786.993V22.64H788.393V23.746H786.993V26H785.733V23.746H780.553ZM785.789 17.306L782.023 22.64H785.789V17.306Z" fill="#00B307"/>
</svg>
