<svg width="45" height="32" viewBox="0 0 45 32" fill="none" xmlns="http://www.w3.org/2000/svg">
<rect x="0.5" y="0.5" width="44" height="30.7647" rx="4.79412" fill="#1A1A1A" stroke="#333333"/>
<path fill-rule="evenodd" clip-rule="evenodd" d="M22.7371 22.2741C21.17 23.5951 19.1372 24.3925 16.9158 24.3925C11.9594 24.3925 7.94141 20.4223 7.94141 15.5249C7.94141 10.6274 11.9594 6.65723 16.9158 6.65723C19.1372 6.65723 21.17 7.45467 22.7372 8.77564C24.3043 7.45468 26.3371 6.65725 28.5585 6.65725C33.5149 6.65725 37.5329 10.6274 37.5329 15.5249C37.5329 20.4224 33.5149 24.3925 28.5585 24.3925C26.3371 24.3925 24.3043 23.5951 22.7371 22.2741Z" fill="#ED0006"/>
<path fill-rule="evenodd" clip-rule="evenodd" d="M22.7373 22.2742C24.6669 20.6477 25.8905 18.2275 25.8905 15.5249C25.8905 12.8223 24.6669 10.402 22.7373 8.77555C24.3044 7.45464 26.3372 6.65723 28.5585 6.65723C33.515 6.65723 37.533 10.6274 37.533 15.5249C37.533 20.4223 33.515 24.3925 28.5585 24.3925C26.3372 24.3925 24.3044 23.5951 22.7373 22.2742Z" fill="#F9A000"/>
<path fill-rule="evenodd" clip-rule="evenodd" d="M22.7371 22.2744C24.6667 20.6479 25.8903 18.2277 25.8903 15.5251C25.8903 12.8226 24.6667 10.4024 22.7371 8.77588C20.8075 10.4024 19.584 12.8226 19.584 15.5251C19.584 18.2277 20.8075 20.6479 22.7371 22.2744Z" fill="#FF5E00"/>
</svg>
