<svg viewBox="0 0 1200 1000" xmlns="http://www.w3.org/2000/svg">
  <!-- Styles -->
  <style>
    .entity {
      fill: #f0f8ff;
      stroke: #0066cc;
      stroke-width: 2;
      rx: 8;
      ry: 8;
      filter: drop-shadow(2px 2px 3px rgba(0, 0, 0, 0.2));
    }
    .title {
      font-family: Arial, sans-serif;
      font-size: 16px;
      font-weight: bold;
      text-anchor: middle;
      fill: #003366;
    }
    .attribute {
      font-family: Arial, sans-serif;
      font-size: 12px;
      text-anchor: start;
      fill: #333333;
    }
    .pk {
      font-weight: bold;
      fill: #0066cc;
    }
    .fk {
      font-style: italic;
      fill: #6600cc;
    }
    .relationship {
      stroke: #6600cc;
      stroke-width: 2;
      fill: none;
      marker-end: url(#arrow);
    }
    .relationship-text {
      font-family: Arial, sans-serif;
      font-size: 12px;
      text-anchor: middle;
      fill: #6600cc;
    }
    .cardinality {
      font-family: Arial, sans-serif;
      font-size: 12px;
      font-weight: bold;
      text-anchor: middle;
      fill: #6600cc;
    }
  </style>

  <!-- Arrow marker for relationships -->
  <defs>
    <marker id="arrow" viewBox="0 0 10 10" refX="9" refY="5"
        markerWidth="6" markerHeight="6" orient="auto">
      <path d="M 0 0 L 10 5 L 0 10 z" fill="#6600cc"/>
    </marker>
  </defs>

  <!-- Entities -->
  <!-- Categories -->
  <rect class="entity" x="50" y="50" width="200" height="160" />
  <text class="title" x="150" y="75">CATEGORIES</text>
  <line x1="50" y1="90" x2="250" y2="90" stroke="#0066cc" stroke-width="2" />
  <text class="attribute pk" x="60" y="115">id (PK)</text>
  <text class="attribute" x="60" y="135">name</text>
  <text class="attribute" x="60" y="155">display_order</text>
  <text class="attribute" x="60" y="175">image</text>
  <text class="attribute" x="60" y="195">description</text>

  <!-- Brands -->
  <rect class="entity" x="50" y="300" width="200" height="140" />
  <text class="title" x="150" y="325">BRANDS</text>
  <line x1="50" y1="340" x2="250" y2="340" stroke="#0066cc" stroke-width="2" />
  <text class="attribute pk" x="60" y="365">id (PK)</text>
  <text class="attribute" x="60" y="385">name</text>
  <text class="attribute" x="60" y="405">logo</text>
  <text class="attribute" x="60" y="425">description</text>
  <text class="attribute" x="60" y="445">website</text>

  <!-- Products -->
  <rect class="entity" x="350" y="50" width="200" height="360" />
  <text class="title" x="450" y="75">PRODUCTS</text>
  <line x1="350" y1="90" x2="550" y2="90" stroke="#0066cc" stroke-width="2" />
  <text class="attribute pk" x="360" y="115">id (PK)</text>
  <text class="attribute" x="360" y="135">name</text>
  <text class="attribute fk" x="360" y="155">category_id (FK)</text>
  <text class="attribute fk" x="360" y="175">brand_id (FK)</text>
  <text class="attribute" x="360" y="195">main_image</text>
  <text class="attribute" x="360" y="215">original_price</text>
  <text class="attribute" x="360" y="235">discounted_price</text>
  <text class="attribute" x="360" y="255">stock_quantity</text>
  <text class="attribute" x="360" y="275">weight</text>
  <text class="attribute" x="360" y="295">color</text>
  <text class="attribute" x="360" y="315">type</text>
  <text class="attribute" x="360" y="335">features</text>
  <text class="attribute" x="360" y="355">description</text>
  <text class="attribute" x="360" y="375">tags</text>
  <text class="attribute" x="360" y="395">status</text>

  <!-- Product Images -->
  <rect class="entity" x="650" y="50" width="200" height="120" />
  <text class="title" x="750" y="75">PRODUCT_IMAGES</text>
  <line x1="650" y1="90" x2="850" y2="90" stroke="#0066cc" stroke-width="2" />
  <text class="attribute pk" x="660" y="115">id (PK)</text>
  <text class="attribute fk" x="660" y="135">product_id (FK)</text>
  <text class="attribute" x="660" y="155">image_path</text>
  <text class="attribute" x="660" y="175">display_order</text>

  <!-- Users -->
  <rect class="entity" x="50" y="550" width="200" height="240" />
  <text class="title" x="150" y="575">USERS</text>
  <line x1="50" y1="590" x2="250" y2="590" stroke="#0066cc" stroke-width="2" />
  <text class="attribute pk" x="60" y="615">id (PK)</text>
  <text class="attribute" x="60" y="635">name</text>
  <text class="attribute" x="60" y="655">last_name</text>
  <text class="attribute" x="60" y="675">email</text>
  <text class="attribute" x="60" y="695">phone</text>
  <text class="attribute" x="60" y="715">password</text>
  <text class="attribute" x="60" y="735">role</text>
  <text class="attribute" x="60" y="755">profile_image</text>
  <text class="attribute" x="60" y="775">address</text>

  <!-- Reviews -->
  <rect class="entity" x="350" y="500" width="200" height="140" />
  <text class="title" x="450" y="525">REVIEWS</text>
  <line x1="350" y1="540" x2="550" y2="540" stroke="#0066cc" stroke-width="2" />
  <text class="attribute pk" x="360" y="565">id (PK)</text>
  <text class="attribute fk" x="360" y="585">product_id (FK)</text>
  <text class="attribute fk" x="360" y="605">user_id (FK)</text>
  <text class="attribute" x="360" y="625">user_name</text>
  <text class="attribute" x="360" y="645">rating</text>
  <text class="attribute" x="360" y="665">comment</text>

  <!-- Tags -->
  <rect class="entity" x="650" y="200" width="200" height="100" />
  <text class="title" x="750" y="225">TAGS</text>
  <line x1="650" y1="240" x2="850" y2="240" stroke="#0066cc" stroke-width="2" />
  <text class="attribute pk" x="660" y="265">id (PK)</text>
  <text class="attribute" x="660" y="285">name</text>

  <!-- Product Tags -->
  <rect class="entity" x="650" y="350" width="200" height="100" />
  <text class="title" x="750" y="375">PRODUCT_TAGS</text>
  <line x1="650" y1="390" x2="850" y2="390" stroke="#0066cc" stroke-width="2" />
  <text class="attribute pk fk" x="660" y="415">product_id (PK, FK)</text>
  <text class="attribute pk fk" x="660" y="435">tag_id (PK, FK)</text>

  <!-- Related Products -->
  <rect class="entity" x="350" y="700" width="200" height="120" />
  <text class="title" x="450" y="725">RELATED_PRODUCTS</text>
  <line x1="350" y1="740" x2="550" y2="740" stroke="#0066cc" stroke-width="2" />
  <text class="attribute pk" x="360" y="765">id (PK)</text>
  <text class="attribute fk" x="360" y="785">product_id (FK)</text>
  <text class="attribute fk" x="360" y="805">related_product_id (FK)</text>

  <!-- Carts -->
  <rect class="entity" x="650" y="500" width="200" height="100" />
  <text class="title" x="750" y="525">CARTS</text>
  <line x1="650" y1="540" x2="850" y2="540" stroke="#0066cc" stroke-width="2" />
  <text class="attribute pk" x="660" y="565">id (PK)</text>
  <text class="attribute fk" x="660" y="585">user_id (FK)</text>

  <!-- Cart Items -->
  <rect class="entity" x="650" y="650" width="200" height="120" />
  <text class="title" x="750" y="675">CART_ITEMS</text>
  <line x1="650" y1="690" x2="850" y2="690" stroke="#0066cc" stroke-width="2" />
  <text class="attribute pk" x="660" y="715">id (PK)</text>
  <text class="attribute fk" x="660" y="735">cart_id (FK)</text>
  <text class="attribute fk" x="660" y="755">product_id (FK)</text>
  <text class="attribute" x="660" y="775">quantity</text>

  <!-- Orders -->
  <rect class="entity" x="950" y="500" width="200" height="180" />
  <text class="title" x="1050" y="525">ORDERS</text>
  <line x1="950" y1="540" x2="1150" y2="540" stroke="#0066cc" stroke-width="2" />
  <text class="attribute pk" x="960" y="565">id (PK)</text>
  <text class="attribute fk" x="960" y="585">user_id (FK)</text>
  <text class="attribute" x="960" y="605">total_price</text>
  <text class="attribute" x="960" y="625">shipping_address</text>
  <text class="attribute" x="960" y="645">status</text>
  <text class="attribute" x="960" y="665">payment_method</text>
  <text class="attribute" x="960" y="685">tracking_number</text>

  <!-- Order Items -->
  <rect class="entity" x="950" y="730" width="200" height="140" />
  <text class="title" x="1050" y="755">ORDER_ITEMS</text>
  <line x1="950" y1="770" x2="1150" y2="770" stroke="#0066cc" stroke-width="2" />
  <text class="attribute pk" x="960" y="795">id (PK)</text>
  <text class="attribute fk" x="960" y="815">order_id (FK)</text>
  <text class="attribute fk" x="960" y="835">product_id (FK)</text>
  <text class="attribute" x="960" y="855">quantity</text>
  <text class="attribute" x="960" y="875">price</text>

  <!-- Product Videos -->
  <rect class="entity" x="650" y="820" width="200" height="130" />
  <text class="title" x="750" y="845">PRODUCT_VIDEOS</text>
  <line x1="650" y1="860" x2="850" y2="860" stroke="#0066cc" stroke-width="2" />
  <text class="attribute pk" x="660" y="885">id (PK)</text>
  <text class="attribute fk" x="660" y="905">product_id (FK)</text>
  <text class="attribute" x="660" y="925">video_id</text>
  <text class="attribute" x="660" y="945">video_platform</text>

  <!-- Product Features -->
  <rect class="entity" x="350" y="870" width="200" height="120" />
  <text class="title" x="450" y="895">PRODUCT_FEATURES</text>
  <line x1="350" y1="910" x2="550" y2="910" stroke="#0066cc" stroke-width="2" />
  <text class="attribute pk" x="360" y="935">id (PK)</text>
  <text class="attribute fk" x="360" y="955">product_id (FK)</text>
  <text class="attribute" x="360" y="975">icon</text>
  <text class="attribute" x="360" y="995">title</text>

  <!-- Relationships - Organized with proper routing -->
  <!-- Category to Products -->
  <path class="relationship" d="M250,130 L350,130" />
  <text class="cardinality" x="260" y="125">1</text>
  <text class="cardinality" x="340" y="125">N</text>

  <!-- Brand to Products -->
  <path class="relationship" d="M250,350 C300,350 300,165 350,165" />
  <text class="cardinality" x="260" y="345">1</text>
  <text class="cardinality" x="340" y="160">N</text>

  <!-- Product to Product Images -->
  <path class="relationship" d="M550,125 L650,125" />
  <text class="cardinality" x="560" y="120">1</text>
  <text class="cardinality" x="640" y="120">N</text>

  <!-- Product to Tags (through Product_Tags) -->
  <path class="relationship" d="M550,250 C600,250 600,400 650,400" />
  <text class="cardinality" x="560" y="245">1</text>
  <text class="cardinality" x="640" y="395">N</text>
  
  <!-- Tags to Product_Tags -->
  <path class="relationship" d="M750,300 L750,350" />
  <text class="cardinality" x="745" y="315">1</text>
  <text class="cardinality" x="745" y="340">N</text>

  <!-- Product to Related Products -->
  <path class="relationship" d="M450,410 C450,550 450,700 450,700" />
  <text class="cardinality" x="455" y="425">1</text>
  <text class="cardinality" x="455" y="690">N</text>

  <!-- Product to Product Features -->
  <path class="relationship" d="M450,410 C450,640 450,870 450,870" />
  <text class="cardinality" x="455" y="425">1</text>
  <text class="cardinality" x="455" y="860">N</text>

  <!-- Product to Product Videos -->
  <path class="relationship" d="M550,230 C600,230 600,885 650,885" />
  <text class="cardinality" x="560" y="225">1</text>
  <text class="cardinality" x="640" y="880">N</text>

  <!-- User Relationships - Organized vertically -->
  <!-- User to Reviews -->
  <path class="relationship" d="M250,600 C300,600 300,595 350,595" />
  <text class="cardinality" x="260" y="595">1</text>
  <text class="cardinality" x="340" y="590">N</text>

  <!-- User to Carts -->
  <path class="relationship" d="M250,650 C450,650 450,550 650,550" />
  <text class="cardinality" x="260" y="645">1</text>
  <text class="cardinality" x="640" y="545">N</text>

  <!-- User to Orders -->
  <path class="relationship" d="M250,670 C600,670 600,585 950,585" />
  <text class="cardinality" x="260" y="665">1</text>
  <text class="cardinality" x="940" y="580">N</text>

  <!-- Products to reviews -->
  <path class="relationship" d="M450,410 L450,500" />
  <text class="cardinality" x="445" y="425">1</text>
  <text class="cardinality" x="445" y="490">N</text>

  <!-- Cart to Cart Items - Clean vertical relationship -->
  <path class="relationship" d="M750,600 L750,650" />
  <text class="cardinality" x="745" y="615">1</text>
  <text class="cardinality" x="745" y="640">N</text>

  <!-- Order to Order Items - Clean vertical relationship -->
  <path class="relationship" d="M1050,680 L1050,730" />
  <text class="cardinality" x="1045" y="695">1</text>
  <text class="cardinality" x="1045" y="720">N</text>
  
  <!-- Product to Cart Items -->
  <path class="relationship" d="M550,300 C600,300 600,745 650,745" />
  <text class="cardinality" x="560" y="295">1</text>
  <text class="cardinality" x="640" y="740">N</text>

  <!-- Product to Order Items -->
  <path class="relationship" d="M550,250 C800,250 800,835 950,835" />
  <text class="cardinality" x="560" y="245">1</text>
  <text class="cardinality" x="940" y="830">N</text>
</svg>